<?xml version="1.0" encoding="UTF-8"?>
<svg id="Capa_2" data-name="Capa 2" xmlns="http://www.w3.org/2000/svg" viewBox="0 0 579.97 209.29">
  <defs>
    <style>
      .cls-1 {
        fill: #26306b;
      }

      .cls-2 {
        fill: #fff;
      }

      .cls-3 {
        fill: none;
        stroke: #fff;
        stroke-linecap: round;
        stroke-miterlimit: 10;
        stroke-width: 3.51px;
      }

      .cls-4 {
        fill: #ffa732;
      }
    </style>
  </defs>
  <g id="branding">
    <g>
      <rect class="cls-1" y="0" width="579.97" height="170.76" rx="51.14" ry="51.14"/>
      <rect class="cls-4" x="198.59" y="133.41" width="358.46" height="75.88" rx="31.61" ry="31.61"/>
      <g>
        <path class="cls-4" d="M243.75,25.78c0-2.55,1.3-3.83,3.89-3.83h4.71c2.55,0,3.83,1.28,3.83,3.83v34.7c0,2.55-1.28,3.83-3.83,3.83h-4.71c-2.59,0-3.89-1.28-3.89-3.83V25.78Z"/>
        <path class="cls-4" d="M261.66,37.56c0-2.55,1.28-3.83,3.83-3.83h4.06c2.51,0,3.77,1.43,3.77,4.3h.12c.82-1.53,1.92-2.75,3.3-3.65,1.37-.9,3.3-1.35,5.77-1.35,1.37,0,2.72.17,4.04.5,1.32.33,2.49.93,3.53,1.8,1.04.86,1.88,2.02,2.53,3.48.65,1.45.97,3.3.97,5.54v16.14c0,2.55-1.3,3.83-3.89,3.83h-4.59c-2.55,0-3.83-1.28-3.83-3.83v-13.49c0-1.1-.24-1.86-.71-2.27s-1.14-.62-2-.62c-.94,0-1.72.2-2.33.59-.61.39-1.08.91-1.41,1.56-.33.65-.56,1.38-.68,2.18-.12.81-.18,1.6-.18,2.39v9.66c0,2.55-1.3,3.83-3.89,3.83h-4.59c-2.55,0-3.83-1.28-3.83-3.83v-22.91Z"/>
        <path class="cls-4" d="M300.3,43.86h-.24c-2.55,0-3.83-1.28-3.83-3.83v-1.83c0-2.55,1.28-3.83,3.83-3.83h.24v-1.53c0-2.43.56-4.39,1.68-5.86s2.43-2.6,3.95-3.39c1.51-.78,3.02-1.3,4.54-1.53,1.51-.24,2.68-.35,3.5-.35h1.12c2.55,0,3.83,1.3,3.83,3.89v2.65c0,1.26-.31,2.17-.94,2.74-.63.57-1.57.93-2.83,1.09-.51.08-1.06.19-1.65.32-.59.14-.88.52-.88,1.15v.82h1.06c2.55,0,3.83,1.28,3.83,3.83v1.83c0,2.55-1.28,3.83-3.83,3.83h-1.06v16.61c0,2.55-1.3,3.83-3.89,3.83h-4.59c-2.55,0-3.83-1.28-3.83-3.83v-16.61Z"/>
        <path class="cls-4" d="M319.09,49.16c0-2.43.46-4.64,1.38-6.63.92-1.98,2.18-3.68,3.77-5.1,1.59-1.41,3.47-2.5,5.63-3.27,2.16-.77,4.46-1.15,6.89-1.15s4.79.38,6.95,1.15c2.16.77,4.04,1.86,5.65,3.27,1.61,1.41,2.88,3.11,3.8,5.1.92,1.98,1.38,4.19,1.38,6.63s-.46,4.62-1.38,6.57c-.92,1.94-2.19,3.6-3.8,4.98-1.61,1.38-3.49,2.44-5.63,3.18-2.14.75-4.45,1.12-6.92,1.12s-4.78-.37-6.92-1.12c-2.14-.75-4.02-1.81-5.63-3.18-1.61-1.37-2.88-3.03-3.8-4.98-.92-1.94-1.38-4.13-1.38-6.57ZM331.52,49.16c0,1.89.53,3.31,1.59,4.27,1.06.96,2.3,1.44,3.71,1.44s2.66-.48,3.74-1.44c1.08-.96,1.62-2.39,1.62-4.27s-.54-3.41-1.62-4.45c-1.08-1.04-2.33-1.56-3.74-1.56s-2.65.52-3.71,1.56c-1.06,1.04-1.59,2.52-1.59,4.45ZM333.61,30.11c-.45-.84-.34-1.84.32-2.97l1.35-2.47c1.02-1.85,2.53-2.77,4.54-2.77h3.18c1.65,0,2.64.47,2.97,1.41.33.94,0,2.04-1.03,3.3l-2.06,2.47c-.67.79-1.35,1.36-2.06,1.74-.71.37-1.57.56-2.59.56h-2.06c-1.26,0-2.11-.42-2.56-1.27Z"/>
        <path class="cls-4" d="M357.68,37.56c0-2.55,1.28-3.83,3.83-3.83h4.06c2.59,0,3.89,1.28,3.89,3.83v1.18c0,.24-.01.45-.03.65-.02.2-.03.37-.03.53-.04.16-.06.33-.06.53h.12c.24-.67.59-1.41,1.06-2.24s1.05-1.59,1.74-2.3c.69-.71,1.43-1.31,2.24-1.8.8-.49,1.66-.74,2.56-.74,1.22,0,2.05.33,2.5,1,.45.67.68,1.63.68,2.89v4.01c0,2.59-1.26,3.89-3.77,3.89-2.2,0-3.83.71-4.89,2.12-1.06,1.41-1.59,3.24-1.59,5.48v7.72c0,2.55-1.3,3.83-3.89,3.83h-4.59c-2.55,0-3.83-1.28-3.83-3.83v-22.91Z"/>
        <path class="cls-4" d="M418,46.28c0-.75-.17-1.29-.5-1.62-.33-.33-.78-.5-1.33-.5-.86,0-1.54.24-2.03.71-.49.47-.85,1.09-1.09,1.86s-.37,1.61-.41,2.53c-.04.92-.06,1.82-.06,2.68v8.54c0,2.55-1.28,3.83-3.83,3.83h-4.59c-2.55,0-3.83-1.28-3.83-3.83v-14.2c0-.75-.17-1.29-.5-1.62-.33-.33-.78-.5-1.33-.5-.86,0-1.54.24-2.03.71-.49.47-.85,1.09-1.09,1.86-.24.77-.37,1.61-.41,2.53-.04.92-.06,1.82-.06,2.68v8.54c0,2.55-1.3,3.83-3.89,3.83h-4.59c-2.55,0-3.83-1.28-3.83-3.83v-22.91c0-2.55,1.28-3.83,3.83-3.83h4.06c1.06,0,1.95.34,2.68,1.03.73.69,1.09,1.78,1.09,3.27h.12c.35-.59.77-1.18,1.24-1.77s1.04-1.12,1.71-1.59c.67-.47,1.44-.86,2.33-1.18.88-.31,1.93-.47,3.15-.47,1.65,0,3.24.37,4.77,1.12,1.53.75,2.69,2.02,3.48,3.83h.12c.67-1.33,1.84-2.49,3.51-3.48,1.67-.98,3.6-1.47,5.8-1.47,1.26,0,2.47.18,3.65.53,1.18.35,2.23.97,3.15,1.86.92.88,1.66,2.05,2.21,3.5.55,1.45.82,3.26.82,5.42v16.14c0,2.55-1.28,3.83-3.83,3.83h-4.59c-2.59,0-3.89-1.28-3.89-3.83v-14.2Z"/>
        <path class="cls-4" d="M432.78,55.58c0-1.81.5-3.33,1.5-4.57,1-1.24,2.3-2.25,3.89-3.03,1.59-.79,3.39-1.35,5.39-1.71,2-.35,4.03-.53,6.07-.53h.59v-1c0-.75-.35-1.25-1.06-1.5-.71-.25-1.45-.38-2.24-.38s-1.55.11-2.42.32c-.86.22-1.69.48-2.47.8-1.18.51-2.2.63-3.06.35-.86-.27-1.57-.98-2.12-2.12l-.82-1.77c-.51-1.1-.65-2.1-.41-3,.24-.9.9-1.61,2-2.12,1.3-.59,2.83-1.12,4.59-1.59,1.77-.47,3.73-.71,5.89-.71s4.18.29,5.95.88c1.77.59,3.28,1.43,4.54,2.53,1.26,1.1,2.22,2.44,2.89,4.01.67,1.57,1,3.34,1,5.3v14.73c0,2.55-1.28,3.83-3.83,3.83h-3.48c-2.36,0-3.63-1.35-3.83-4.06h-.12c-.82,1.26-1.9,2.37-3.21,3.33-1.32.96-3.11,1.44-5.39,1.44-1.53,0-2.91-.26-4.12-.77-1.22-.51-2.25-1.2-3.09-2.06-.85-.86-1.49-1.86-1.94-3-.45-1.14-.68-2.34-.68-3.59ZM443.92,54.52c0,.43.18.87.53,1.33.35.45.98.68,1.89.68,1.14,0,2.09-.38,2.86-1.15.77-.77,1.15-1.72,1.15-2.86v-.59h-.65c-1.69,0-3.07.23-4.15.68-1.08.45-1.62,1.09-1.62,1.91Z"/>
        <path class="cls-4" d="M469.25,43.86h-.35c-2.51,0-3.77-1.28-3.77-3.83v-1.83c0-2.55,1.26-3.83,3.77-3.83h.77v-5.01c0-2.55,1.28-3.83,3.83-3.83h4.18c2.59,0,3.89,1.28,3.89,3.83v5.01h2.12c2.59,0,3.89,1.28,3.89,3.83v1.83c0,2.55-1.26,3.83-3.77,3.83h-2.24v7.3c0,1.61.84,2.53,2.53,2.77.71.12,1.3.24,1.77.35.47.12.85.3,1.15.56.29.26.51.59.65,1,.14.41.21.95.21,1.62v3.3c0,1.45-.42,2.45-1.27,3-.84.55-2.09.82-3.74.82-.94,0-2.19-.13-3.74-.38-1.55-.25-3.05-.77-4.51-1.56-1.45-.79-2.71-1.9-3.77-3.36-1.06-1.45-1.59-3.4-1.59-5.83v-9.6Z"/>
        <path class="cls-4" d="M489.92,48.99c0-2.16.35-4.21,1.06-6.16.71-1.94,1.75-3.64,3.12-5.1,1.37-1.45,3.07-2.6,5.1-3.45,2.02-.84,4.33-1.27,6.92-1.27,2.36,0,4.44.38,6.24,1.15,1.81.77,3.33,1.8,4.56,3.09,1.24,1.3,2.17,2.81,2.8,4.54.63,1.73.94,3.57.94,5.54,0,.47-.1.94-.29,1.41-.2.47-.47.89-.82,1.27-.35.37-.79.69-1.3.94-.51.26-1.06.38-1.65.38h-14.26c.51,1.34,1.31,2.26,2.39,2.77,1.08.51,2.19.77,3.33.77.75,0,1.53-.08,2.36-.24.82-.16,1.63-.41,2.42-.77,1.14-.51,2.14-.67,3-.47.86.2,1.59.86,2.18,2l.94,1.83c.55,1.14.73,2.16.53,3.06-.2.9-.82,1.65-1.88,2.24-1.22.63-2.71,1.2-4.48,1.71-1.77.51-3.81.77-6.13.77-2.91,0-5.43-.47-7.57-1.41-2.14-.94-3.92-2.18-5.33-3.71-1.41-1.53-2.46-3.25-3.15-5.15-.69-1.9-1.03-3.82-1.03-5.74ZM508.83,45.16c.08-.94-.12-1.82-.59-2.62-.47-.8-1.22-1.21-2.24-1.21-.67,0-1.22.12-1.65.35-.43.24-.79.53-1.06.88-.28.35-.47.76-.59,1.21-.12.45-.2.91-.24,1.38h6.36Z"/>
        <path class="cls-2" d="M254.62,114.41c.67-.28,1.35-.35,2.06-.24.2.04.42.08.68.12.25.04.56.06.91.06.79,0,1.52-.27,2.21-.8.69-.53,1.17-1.17,1.44-1.91l.18-.47-11.13-25.39c-.59-1.33-.62-2.42-.09-3.24.53-.82,1.54-1.24,3.03-1.24h5.71c1.14,0,2.09.26,2.86.77.77.51,1.29,1.32,1.56,2.42l2.12,8.42c.12.43.24.97.35,1.62.12.65.22,1.29.29,1.91.12.71.22,1.47.29,2.3h.12c.12-.82.24-1.59.35-2.3.08-.63.18-1.28.29-1.94.12-.67.22-1.22.29-1.65l1.47-8.25c.2-1.14.68-1.97,1.44-2.5.77-.53,1.72-.8,2.86-.8h5.3c1.41,0,2.41.4,2.98,1.21.57.81.62,1.88.15,3.21l-10.13,28.45c-.71,1.96-1.59,3.59-2.65,4.89-1.06,1.3-2.22,2.33-3.48,3.09-1.26.77-2.57,1.31-3.95,1.62-1.38.31-2.71.47-4.01.47-.79,0-1.53-.06-2.24-.18-.71-.12-1.39-.28-2.06-.47-1.14-.39-1.87-1.05-2.18-1.97-.31-.92-.22-1.95.29-3.09l.88-2.06c.51-1.1,1.1-1.79,1.77-2.06Z"/>
        <path class="cls-2" d="M300.16,85.13c0-2.55,1.3-3.83,3.89-3.83h3.24c1.26,0,2.21.29,2.86.88.65.59.97,1.34.97,2.24v.82h.12c.51-.82,1.16-1.59,1.94-2.3.67-.59,1.56-1.13,2.68-1.62,1.12-.49,2.5-.74,4.15-.74,2.08,0,3.98.39,5.68,1.18,1.71.79,3.17,1.89,4.39,3.3,1.22,1.41,2.16,3.1,2.83,5.07.67,1.96,1,4.12,1,6.48s-.36,4.63-1.09,6.6c-.73,1.96-1.74,3.63-3.03,5.01-1.3,1.38-2.82,2.44-4.56,3.21-1.75.77-3.64,1.15-5.68,1.15-1.38,0-2.51-.16-3.42-.47-.9-.31-1.63-.69-2.18-1.12-.67-.43-1.16-.96-1.47-1.59h-.12c0,.28.02.57.06.88,0,.31,0,.66.03,1.03.02.37.03.8.03,1.27v7.25c0,2.55-1.28,3.83-3.83,3.83h-4.59c-2.59,0-3.89-1.28-3.89-3.83v-34.7ZM312.11,96.86c0,.71.1,1.4.29,2.09.2.69.48,1.3.85,1.83.37.53.86.95,1.47,1.27.61.31,1.33.47,2.15.47,1.26,0,2.36-.48,3.3-1.44.94-.96,1.41-2.37,1.41-4.21s-.44-3.26-1.33-4.36c-.88-1.1-2.03-1.65-3.45-1.65-1.22,0-2.31.48-3.27,1.44-.96.96-1.44,2.48-1.44,4.57Z"/>
        <path class="cls-2" d="M335.79,96.74c0-2.43.46-4.64,1.38-6.63.92-1.98,2.18-3.68,3.77-5.1,1.59-1.41,3.47-2.5,5.63-3.27,2.16-.77,4.46-1.15,6.89-1.15s4.79.38,6.95,1.15c2.16.77,4.04,1.86,5.65,3.27,1.61,1.41,2.88,3.11,3.8,5.1.92,1.98,1.38,4.19,1.38,6.63s-.46,4.62-1.38,6.57c-.92,1.94-2.19,3.6-3.8,4.98-1.61,1.38-3.49,2.44-5.63,3.18-2.14.75-4.45,1.12-6.92,1.12s-4.78-.37-6.92-1.12c-2.14-.75-4.02-1.81-5.63-3.18-1.61-1.37-2.88-3.03-3.8-4.98-.92-1.94-1.38-4.13-1.38-6.57ZM348.22,96.74c0,1.89.53,3.31,1.59,4.27,1.06.96,2.3,1.44,3.71,1.44s2.66-.48,3.74-1.44c1.08-.96,1.62-2.39,1.62-4.27s-.54-3.41-1.62-4.45c-1.08-1.04-2.33-1.56-3.74-1.56s-2.65.52-3.71,1.56c-1.06,1.04-1.59,2.52-1.59,4.45Z"/>
        <path class="cls-2" d="M375.14,110.05c-1.1-.67-1.71-1.46-1.83-2.39-.12-.92.16-1.91.82-2.97l1-1.59c.67-1.02,1.4-1.6,2.21-1.74.8-.14,1.84.03,3.09.5.31.12.94.36,1.89.74.94.37,1.98.56,3.12.56.67,0,1.13-.12,1.38-.35.25-.24.38-.51.38-.82,0-.43-.33-.76-1-.97-.67-.22-1.51-.44-2.53-.68-1.02-.24-2.12-.52-3.3-.85-1.18-.33-2.28-.83-3.3-1.5-1.02-.67-1.87-1.56-2.53-2.68-.67-1.12-1-2.58-1-4.39,0-1.69.34-3.18,1.03-4.48.69-1.3,1.64-2.38,2.86-3.24,1.22-.86,2.62-1.51,4.21-1.94,1.59-.43,3.31-.65,5.15-.65s3.65.19,5.3.56c1.65.37,2.89.78,3.71,1.21,1.06.55,1.7,1.29,1.91,2.21.22.92.05,1.91-.5,2.97l-.82,1.65c-.12.28-.29.58-.5.91-.22.33-.5.62-.85.85-.35.24-.82.38-1.41.44-.59.06-1.34-.07-2.24-.38-.79-.24-1.57-.47-2.36-.71-.79-.24-1.61-.35-2.47-.35-1.1,0-1.65.37-1.65,1.12,0,.39.33.7,1,.91.67.22,1.51.43,2.53.65,1.02.22,2.12.49,3.3.82,1.18.33,2.28.82,3.3,1.47,1.02.65,1.86,1.52,2.53,2.62.67,1.1,1,2.53,1,4.3,0,1.53-.29,2.96-.88,4.27-.59,1.32-1.44,2.44-2.56,3.39-1.12.94-2.49,1.69-4.12,2.24-1.63.55-3.47.82-5.51.82-1.18,0-2.31-.09-3.39-.26-1.08-.18-2.07-.39-2.98-.65-.9-.26-1.7-.53-2.39-.82-.69-.29-1.23-.56-1.62-.8Z"/>
        <path class="cls-2" d="M404.54,91.44h-.35c-2.51,0-3.77-1.28-3.77-3.83v-1.83c0-2.55,1.26-3.83,3.77-3.83h.77v-5.01c0-2.55,1.28-3.83,3.83-3.83h4.18c2.59,0,3.89,1.28,3.89,3.83v5.01h2.12c2.59,0,3.89,1.28,3.89,3.83v1.83c0,2.55-1.26,3.83-3.77,3.83h-2.24v7.3c0,1.61.84,2.53,2.53,2.77.71.12,1.3.24,1.77.35.47.12.85.3,1.15.56.29.26.51.59.65,1,.14.41.21.95.21,1.62v3.3c0,1.45-.42,2.45-1.27,3-.84.55-2.09.82-3.74.82-.94,0-2.19-.13-3.74-.38-1.55-.25-3.05-.77-4.51-1.56-1.45-.79-2.71-1.9-3.77-3.36-1.06-1.45-1.59-3.4-1.59-5.83v-9.6Z"/>
        <path class="cls-2" d="M438.53,98.56c0,1.1.24,1.86.71,2.27s1.14.62,2,.62,1.63-.2,2.18-.59c.55-.39.98-.91,1.3-1.56.31-.65.53-1.37.65-2.18.12-.8.18-1.6.18-2.39v-9.6c0-2.55,1.3-3.83,3.89-3.83h4.59c2.55,0,3.83,1.28,3.83,3.83v22.91c0,2.55-1.28,3.83-3.83,3.83h-4.06c-1.26,0-2.2-.3-2.83-.91-.63-.61-.94-1.42-.94-2.44v-.94h-.12c-.43.98-.96,1.8-1.59,2.44-.63.65-1.33,1.16-2.09,1.53-.77.37-1.59.64-2.47.8-.88.16-1.78.24-2.68.24-1.38,0-2.73-.18-4.06-.53-1.34-.35-2.51-.96-3.53-1.83-1.02-.86-1.85-2.02-2.47-3.48-.63-1.45-.94-3.28-.94-5.48v-16.14c0-2.55,1.3-3.83,3.89-3.83h4.59c2.55,0,3.83,1.28,3.83,3.83v13.43Z"/>
        <path class="cls-2" d="M462.32,73.35c0-2.55,1.3-3.83,3.89-3.83h4.59c2.55,0,3.83,1.28,3.83,3.83v25.51c0,.9.1,1.54.29,1.91.2.37.51.6.94.68.82.08,1.48.38,1.97.91.49.53.74,1.31.74,2.33v3.59c0,1.18-.3,2.12-.91,2.83-.61.71-1.6,1.06-2.97,1.06-1.53,0-3.04-.14-4.54-.41-1.49-.27-2.82-.86-3.98-1.77-1.16-.9-2.09-2.2-2.8-3.89-.71-1.69-1.06-3.97-1.06-6.83v-25.92Z"/>
        <path class="cls-2" d="M479.7,103.16c0-1.81.5-3.33,1.5-4.57,1-1.24,2.3-2.25,3.89-3.03,1.59-.79,3.39-1.35,5.39-1.71,2-.35,4.03-.53,6.07-.53h.59v-1c0-.75-.35-1.25-1.06-1.5-.71-.25-1.45-.38-2.24-.38s-1.55.11-2.42.32c-.86.22-1.69.48-2.47.8-1.18.51-2.2.63-3.06.35-.86-.27-1.57-.98-2.12-2.12l-.82-1.77c-.51-1.1-.65-2.1-.41-3,.24-.9.9-1.61,2-2.12,1.3-.59,2.83-1.12,4.59-1.59,1.77-.47,3.73-.71,5.89-.71s4.18.29,5.95.88c1.77.59,3.28,1.43,4.54,2.53,1.26,1.1,2.22,2.44,2.89,4.01.67,1.57,1,3.34,1,5.3v14.73c0,2.55-1.28,3.83-3.83,3.83h-3.48c-2.36,0-3.63-1.35-3.83-4.06h-.12c-.82,1.26-1.9,2.37-3.21,3.33-1.32.96-3.11,1.44-5.39,1.44-1.53,0-2.91-.26-4.12-.77-1.22-.51-2.25-1.2-3.09-2.06-.85-.86-1.49-1.86-1.94-3-.45-1.14-.68-2.34-.68-3.59ZM490.83,102.1c0,.43.18.87.53,1.33.35.45.98.68,1.89.68,1.14,0,2.09-.38,2.86-1.15.77-.77,1.15-1.72,1.15-2.86v-.59h-.65c-1.69,0-3.07.23-4.15.68-1.08.45-1.62,1.09-1.62,1.91Z"/>
      </g>
      <g>
        <path class="cls-2" d="M155.62,46.55h-85.26c-8.04,0-14.62,6.58-14.62,14.62v48.92c0,8.04,6.58,14.62,14.62,14.62h83.67c8.04,0,14.62-6.58,14.62-14.62v-50.52c0-7.17-5.86-13.03-13.03-13.03M158.37,116.03h-92.35c-.88,0-1.6-.71-1.6-1.6v-57.61c0-.88.71-1.6,1.6-1.6h92.35c.88,0,1.6.71,1.6,1.6v57.61c0,.88-.71,1.6-1.6,1.6Z"/>
        <path class="cls-2" d="M171.03,132.98c-1.3,2.63-4.76,4.77-7.69,4.77H61.07c-2.95,0-6.43-2.16-7.73-4.8h0c-1.07-2.14,0-3.88,2.4-3.88h112.91c2.39,0,3.47,1.75,2.4,3.88v.03Z"/>
        <line class="cls-3" x1="155.41" y1="35.53" x2="155.41" y2="19.54"/>
        <line class="cls-3" x1="170.13" y1="39.99" x2="178.22" y2="26.21"/>
        <line class="cls-3" x1="182.61" y1="50.44" x2="195.85" y2="41.49"/>
        <g>
          <path class="cls-2" d="M110.86,107.19c-2.72,0-5.36-.53-7.84-1.58-2.4-1.01-4.55-2.47-6.4-4.32-1.85-1.85-3.3-4-4.32-6.4-1.05-2.48-1.58-5.12-1.58-7.84s.53-5.36,1.58-7.84c1.01-2.4,2.47-4.55,4.32-6.4,1.85-1.85,4-3.3,6.4-4.32,2.48-1.05,5.12-1.58,7.84-1.58s5.22.51,7.64,1.5c.89.36,1.31,1.38.95,2.27-.36.89-1.38,1.31-2.27.95-2.01-.82-4.13-1.24-6.32-1.24s-4.43.44-6.49,1.31c-1.98.84-3.77,2.04-5.3,3.57-1.53,1.53-2.73,3.31-3.57,5.3-.87,2.05-1.31,4.24-1.31,6.49s.44,4.43,1.31,6.49c.84,1.98,2.04,3.77,3.57,5.3,1.53,1.53,3.31,2.73,5.3,3.57,2.05.87,4.24,1.31,6.49,1.31s4.43-.44,6.49-1.31c1.98-.84,3.77-2.04,5.3-3.57,1.53-1.53,2.73-3.31,3.57-5.3.87-2.05,1.31-4.24,1.31-6.49,0-2.05-.37-4.05-1.09-5.95-.34-.9.11-1.9,1-2.24.9-.34,1.9.11,2.24,1,.88,2.29,1.32,4.71,1.32,7.19,0,2.72-.53,5.36-1.58,7.84-1.01,2.4-2.47,4.55-4.32,6.4-1.85,1.85-4,3.3-6.4,4.32-2.48,1.05-5.12,1.58-7.84,1.58Z"/>
          <path class="cls-2" d="M124.58,70.15s-10.29,12.28-14.63,17.46c-.91-1.42-1.86-2.82-2.85-4.19-1.22-1.69-3.63-2.03-5.26-.72-1.59,1.26-1.85,3.57-.59,5.16,1.97,2.47,3.77,5.08,5.45,7.76,1.27,1.96,4.25,1.97,5.53,0,0,0,15.49-23.11,15.49-23.11,1.31-2.11-1.49-4.21-3.14-2.36Z"/>
        </g>
      </g>
      <g>
        <path class="cls-2" d="M255.06,161.1h5.78v23.6h-5.78v-23.6Z"/>
        <path class="cls-2" d="M266.38,161.1h5.84l6.54,11.02c.92,1.55,1.98,4.03,1.98,4.03h.07s-.26-2.54-.26-4.03v-11.02h5.78v23.6h-5.81l-6.57-10.99c-.92-1.55-1.98-4.03-1.98-4.03h-.07s.26,2.54.26,4.03v10.99h-5.78v-23.6Z"/>
        <path class="cls-2" d="M302.65,160.7c6.04,0,9.08,3.14,9.08,3.14l-2.77,4.32s-2.41-2.18-5.74-2.18c-4.95,0-6.96,3.17-6.96,6.67,0,4.49,3.1,7.16,6.77,7.16,2.77,0,4.79-1.72,4.79-1.72v-1.82h-3.33v-4.92h8.45v13.33h-4.82v-.66c0-.5.03-.99.03-.99h-.07s-2.28,2.05-6.2,2.05c-6.04,0-11.58-4.52-11.58-12.24,0-6.86,5.18-12.15,12.38-12.15Z"/>
        <path class="cls-2" d="M317.26,161.1h8.22c2.41,0,3.56.17,4.59.56,2.67,1.02,4.36,3.43,4.36,6.86,0,2.51-1.19,5.25-3.53,6.44v.07s.33.43.89,1.42l4.59,8.25h-6.44l-4.19-7.95h-2.71v7.95h-5.78v-23.6ZM325.55,171.79c1.85,0,3-1.02,3-2.9,0-1.78-.66-2.84-3.56-2.84h-1.95v5.74h2.51Z"/>
        <path class="cls-2" d="M339.87,161.1h14.79v4.95h-9.01v4.29h7.19v4.95h-7.19v4.46h9.47v4.95h-15.25v-23.6Z"/>
        <path class="cls-2" d="M360.56,177.33s2.67,2.44,5.64,2.44c1.19,0,2.48-.46,2.48-1.88,0-2.81-10.63-2.71-10.63-9.97,0-4.36,3.66-7.23,8.35-7.23,5.08,0,7.59,2.67,7.59,2.67l-2.44,4.72s-2.38-2.08-5.21-2.08c-1.19,0-2.51.53-2.51,1.85,0,2.97,10.63,2.44,10.63,9.9,0,3.93-3,7.33-8.32,7.33s-8.61-3.37-8.61-3.37l3.04-4.39Z"/>
        <path class="cls-2" d="M390.23,179.74h-7.36l-1.42,4.95h-5.94l8.02-23.6h6.07l8.02,23.6h-5.94l-1.45-4.95ZM386.53,166.48s-.53,2.57-.96,4.06l-1.35,4.59h4.65l-1.32-4.59c-.43-1.49-.96-4.06-.96-4.06h-.07Z"/>
        <path class="cls-2" d="M419.63,179.74h-7.36l-1.42,4.95h-5.94l8.02-23.6h6.07l8.02,23.6h-5.94l-1.45-4.95ZM415.93,166.48s-.53,2.57-.96,4.06l-1.35,4.59h4.65l-1.32-4.59c-.43-1.49-.96-4.06-.96-4.06h-.07Z"/>
        <path class="cls-2" d="M440.39,160.7c7.13,0,12.34,5.28,12.34,12.05,0,2.71-.96,5.02-2.34,7l2.48,2.01-3.27,3.66-2.41-2.28c-1.91,1.25-4.22,1.95-6.8,1.95-7.13,0-12.34-5.41-12.34-12.34s5.21-12.05,12.34-12.05ZM440.39,179.81c.86,0,1.85-.17,2.57-.53l-2.41-2.11,3.23-3.66,2.34,2.28c.4-.92.63-1.95.63-3.04,0-3.86-2.84-6.77-6.37-6.77s-6.37,2.9-6.37,6.77,2.84,7.06,6.37,7.06Z"/>
        <path class="cls-2" d="M456.65,161.1h5.78v14.92c0,2.48,1.62,3.8,4.09,3.8s4.09-1.32,4.09-3.8v-14.92h5.78v14.92c0,5.31-3.89,9.08-9.84,9.08s-9.9-3.76-9.9-9.08v-14.92Z"/>
        <path class="cls-2" d="M481.6,161.1h5.78v23.6h-5.78v-23.6ZM484.8,154.63h5.64l-3.89,4.95h-4.42l2.67-4.95Z"/>
      </g>
    </g>
  </g>
</svg>